<svg width="16" height="16" viewBox="0 0 16 16" fill="none" xmlns="http://www.w3.org/2000/svg">
<g clip-path="url(#clip0_173_26)">
<path d="M11.3335 1.33337H4.66683C2.82588 1.33337 1.3335 2.82576 1.3335 4.66671V11.3334C1.3335 13.1743 2.82588 14.6667 4.66683 14.6667H11.3335C13.1744 14.6667 14.6668 13.1743 14.6668 11.3334V4.66671C14.6668 2.82576 13.1744 1.33337 11.3335 1.33337Z" stroke="#3498DB" stroke-width="1.33333" stroke-linecap="round" stroke-linejoin="round"/>
<path d="M10.6666 7.57996C10.7488 8.13479 10.6541 8.70143 10.3957 9.1993C10.1374 9.69717 9.72865 10.1009 9.22764 10.3531C8.72662 10.6052 8.15885 10.693 7.60508 10.6039C7.0513 10.5148 6.53973 10.2533 6.14311 9.85673C5.7465 9.46012 5.48504 8.94854 5.39593 8.39477C5.30682 7.84099 5.3946 7.27322 5.64677 6.77221C5.89894 6.27119 6.30268 5.86245 6.80054 5.60412C7.29841 5.34579 7.86506 5.25102 8.41989 5.33329C8.98584 5.41721 9.50979 5.68093 9.91435 6.08549C10.3189 6.49006 10.5826 7.01401 10.6666 7.57996Z" stroke="#3498DB" stroke-width="1.33333" stroke-linecap="round" stroke-linejoin="round"/>
<path d="M11.6665 4.33337H11.6736" stroke="#3498DB" stroke-width="1.33333" stroke-linecap="round" stroke-linejoin="round"/>
</g>
<defs>
<clipPath id="clip0_173_26">
<rect width="16" height="16" fill="white"/>
</clipPath>
</defs>
</svg>
