<svg width="20" height="14" viewBox="0 0 20 14" fill="none" xmlns="http://www.w3.org/2000/svg">
<g clip-path="url(#clip0_172_3)">
<path d="M15.6699 2.48047L11.6891 4.77194L11.7034 4.77636C10.8814 5.19859 10.3181 6.03181 10.3181 6.98368C10.3181 7.01161 10.3193 7.03899 10.3202 7.06665L10.1855 11.4688L14.1621 9.17954C14.9737 8.75506 15.5273 7.92848 15.5273 6.98365C15.5832 5.48406 15.6241 3.98124 15.6699 2.48047ZM14.4546 4.47427L14.3804 6.87163C14.3759 6.9452 14.3759 6.94341 14.3737 6.98441C14.3737 7.51382 14.062 7.96993 13.6097 8.2066C13.596 8.21434 13.5826 8.22231 13.5691 8.23063L11.403 9.47855L11.4753 7.09892C11.476 7.07589 11.476 7.05273 11.4753 7.0297C11.4741 6.98981 11.4729 6.97629 11.4729 6.9845C11.4729 6.45216 11.7899 5.98867 12.2482 5.75317C12.2598 5.73966 12.2711 5.72591 12.2821 5.71196L12.2845 5.72336L14.4546 4.47427Z" fill="#3498DB"/>
<path d="M13.8334 0.24612C11.8209 0.239722 9.66616 1.41526 8.2497 3.38433C8.23321 3.40907 8.26527 3.36287 8.2497 3.38433C6.77156 5.79676 5.59235 7.42251 4.6681 8.43171C3.74354 9.44091 3.07668 9.78538 2.74997 9.81419C2.58661 9.82863 2.48646 9.79908 2.3512 9.70758C2.21563 9.61607 2.05777 9.44616 1.90266 9.19862C1.59243 8.7036 1.30756 7.92677 1.02787 7.09506C0.928939 6.8035 0.602835 6.64426 0.299635 6.7397C-0.00234322 6.83487 -0.16723 7.14671 -0.069522 7.43724C0.214136 8.28069 0.498108 9.10835 0.913366 9.77064C1.121 10.1018 1.36557 10.3973 1.68862 10.6155C2.01167 10.8338 2.42814 10.9564 2.85561 10.9187C3.71086 10.8433 4.52581 10.2663 5.53404 9.16596C6.5386 8.0691 7.73735 6.40406 9.22953 3.97067C11.1507 1.34767 14.3326 0.661697 16.3411 2.26147C18.3628 3.87151 18.5915 7.31492 16.6746 9.97985C14.7577 12.6448 11.5458 13.3478 9.52418 11.7378C8.8216 11.1783 8.34344 10.4159 8.08696 9.52818C7.9978 9.22016 7.68819 9.04018 7.39567 9.1264C7.10316 9.21232 6.93859 9.53162 7.02774 9.83943C7.34591 10.9409 7.96238 11.9316 8.86709 12.652C11.4701 14.7253 15.354 13.7625 17.5649 10.6889C19.7759 7.6152 19.6015 3.42101 16.9985 1.34782C16.063 0.602769 14.9625 0.249729 13.8334 0.24612Z" fill="#3498DB"/>
</g>
<defs>
<clipPath id="clip0_172_3">
<rect width="20" height="14" fill="white"/>
</clipPath>
</defs>
</svg>
